<svg width="29" height="45" viewBox="0 0 29 45" fill="none" xmlns="http://www.w3.org/2000/svg">
<path d="M28.1349 31.719H18.2387L17.4001 7.78273C18.2769 7.78142 18.9898 7.13016 18.9898 6.32966C18.9898 5.52824 18.2756 4.87641 17.3978 4.87641H16.8735C16.9361 4.73733 16.9712 4.58531 16.9712 4.42566C16.9712 3.97193 16.6918 3.57695 16.2818 3.37615C16.3454 3.21603 16.3947 3.02464 16.3947 2.81564C16.3947 2.14837 15.9335 1.62566 15.3447 1.62566H14.9699V0.385119C14.9699 0.172405 14.7808 0 14.5477 0C14.3146 0 14.1257 0.172405 14.1257 0.385119V1.62547H13.7507C13.1619 1.62547 12.7009 2.14818 12.7009 2.81546C12.7009 3.02445 12.7501 3.21584 12.8138 3.37596C12.4037 3.57676 12.1242 3.97175 12.1242 4.42548C12.1242 4.58503 12.1593 4.73715 12.2219 4.87622H11.6981C10.82 4.87622 10.1057 5.52824 10.1057 6.32947C10.1057 7.12997 10.8184 7.78124 11.6953 7.78254L10.8568 31.7187H0.960811C0.727833 31.7187 0.538818 31.8913 0.538818 32.1038V33.4044C0.538818 33.6169 0.727833 33.7895 0.960811 33.7895H3.07995L7.45656 41.4405H5.54051C5.30753 41.4405 5.11862 41.6129 5.11862 41.8256V44.3333C5.11862 44.546 5.30753 44.7184 5.54051 44.7184H23.5547C23.7878 44.7184 23.9767 44.546 23.9767 44.3333V41.8256C23.9767 41.6129 23.7878 41.4405 23.5547 41.4405H21.6387L26.0155 33.7895H28.1344C28.3676 33.7895 28.5564 33.6169 28.5564 33.4044V32.104C28.5568 31.8915 28.3681 31.719 28.1349 31.719ZM13.4286 4.00563C13.5897 4.00563 13.7365 3.92222 13.8073 3.79041C13.8782 3.65849 13.8607 3.50136 13.7625 3.38509C13.7601 3.38248 13.5453 3.1154 13.5453 2.81555C13.5453 2.55434 13.6882 2.39571 13.7512 2.39571H15.345C15.4078 2.39571 15.5511 2.55434 15.5511 2.81555C15.5511 3.11754 15.3344 3.38443 15.334 3.38509C15.2354 3.50126 15.2179 3.65859 15.289 3.79041C15.3599 3.92232 15.507 4.00563 15.6676 4.00563C15.9215 4.00563 16.1279 4.19386 16.1279 4.42557C16.1279 4.65709 15.9217 4.84541 15.6676 4.84541H13.4288C13.1749 4.84541 12.9687 4.65709 12.9687 4.42557C12.9686 4.19386 13.175 4.00563 13.4286 4.00563ZM10.95 6.32957C10.95 5.95292 11.2858 5.64646 11.6985 5.64646H17.398C17.8107 5.64646 18.1462 5.95292 18.1462 6.32957C18.1462 6.70612 17.8106 7.01249 17.398 7.01249H16.965H12.1315H11.6985C11.2858 7.01258 10.95 6.70622 10.95 6.32957ZM12.5401 7.78273H16.5563L17.3948 31.7189H11.7018L12.5401 7.78273ZM23.1331 43.9481H5.96311V42.2107H8.15345H20.943H23.1332L23.1331 43.9481ZM20.6871 41.4404H8.40908L4.03237 33.7894H25.0639L20.6871 41.4404ZM27.7131 33.0193H25.7601H3.33609H1.38321V32.4891H11.2659H17.8303C17.8314 32.4893 17.8325 32.4893 17.833 32.4891H27.7129L27.7131 33.0193Z" fill="#F8F8FB"/>
</svg>
